#!OML:ASF F:\VICON\USERDATA\INSTALL\Justin_Nancy\Justin_Nancy.ASF
:FULLY-SPECIFIED
:DEGREES
32
root 0.687859 17.4091 -31.2627 3.33954 -1.26177 1.17846
lowerback 3.53816 -3.58052 -6.19646
upperback -3.01059 -4.94178 5.34405
thorax -4.13996 -2.19238 9.47236
lowerneck -4.97796 0.222288 -14.7428
upperneck 20.9894 1.15558 4.73732
head 7.16572 -0.194559 4.10284
rclavicle 7.94021e-014 -3.18055e-015
rhumerus -36.5758 3.68886 -81.6826
rradius 27.7427
rwrist 8.65048
rhand -16.8092 8.06834
rfingers 7.12502
rthumb 9.41948 -21.7012
lclavicle 7.94021e-014 -3.18055e-015
lhumerus -37.3082 17.525 86.6158
lradius 26.0224
lwrist -13.2205
lhand -10.0163 28.9534
lfingers 7.12502
lthumb 15.9679 58.3153
rfemur -11.9272 3.16845 23.7515
rtibia 31.7616
rfoot -19.3785 -8.89298
rtoes 6.53256
lfemur -13.4928 -4.4212 -21.4632
ltibia 32.9211
lfoot -18.8778 4.69651
ltoes 1.82062
33
root 0.675659 17.4 -31.259 3.21237 -1.18309 1.17652
lowerback 3.54405 -3.57478 -6.18133
upperback -2.91681 -4.93522 5.29493
thorax -4.05067 -2.198 9.40407
lowerneck -4.57821 0.275241 -14.7731
upperneck 20.7385 1.1464 4.82705
head 7.01144 -0.185888 4.12715
rclavicle 2.67427e-015 -9.54166e-015
rhumerus -36.5893 3.62314 -81.7119
rradius 27.7835
rwrist 8.52645
rhand -17.0521 10.0249
rfingers 7.12502
rthumb 9.18506 -19.755
lclavicle 2.67427e-015 -9.54166e-015
lhumerus -37.498 17.9061 86.2178
lradius 26.0852
lwrist -12.9053
lhand -10.0493 28.8442
lfingers 7.12502
lthumb 15.9362 58.2086
rfemur -11.783 2.96845 23.7947
rtibia 31.7797
rfoot -19.4629 -8.67432
rtoes 7.07888
lfemur -13.4686 -4.48922 -21.4173
ltibia 33.214
lfoot -18.9763 4.67821
ltoes 1.03093
34
root 0.65473 17.3952 -31.2644 3.26581 -1.00647 1.07387
lowerback 3.63606 -3.54273 -6.27556
upperback -2.94152 -4.89954 5.36281
thorax -4.1238 -2.17156 9.54185
lowerneck -4.23343 0.245201 -14.7971
upperneck 20.5285 1.04223 4.86572
head 6.89218 -0.228196 4.12888
rclavicle 6.28719e-014 -1.59028e-015
rhumerus -36.613 3.632 -81.6808
rradius 27.5994
rwrist 8.01222
rhand -16.7851 11.8228
rfingers 7.12502
rthumb 9.44268 -17.9456
lclavicle 6.28719e-014 -1.59028e-015
lhumerus -37.6248 18.3436 85.8859
lradius 26.1302
lwrist -12.705
lhand -9.74521 29.5849
lfingers 7.12502
lthumb 16.229 58.9256
rfemur -11.8697 3.021 24.0203
rtibia 31.8121
rfoot -19.422 -8.89989
rtoes 7.18845
lfemur -13.7893 -4.36078 -21.1757
ltibia 33.5905
lfoot -18.9792 4.37969
ltoes 1.14283
35
root 0.626579 17.3905 -31.2873 3.52998 -0.582194 0.948892
lowerback 3.91871 -3.57036 -6.41212
upperback -3.06715 -4.95376 5.47569
thorax -4.38679 -2.17417 9.78124
lowerneck -4.18948 0.0832068 -14.686
upperneck 20.201 0.826345 4.72247
head 6.80302 -0.321915 4.04118
rclavicle 3.91373e-014 4.77083e-015
rhumerus -36.5495 3.45284 -81.5181
rradius 27.6086
rwrist 8.35945
rhand -17.2753 11.2491
rfingers 7.12502
rthumb 8.96967 -18.5402
lclavicle 3.91373e-014 4.77083e-015
lhumerus -37.6756 18.9008 85.5548
lradius 26.2951
lwrist -12.5416
lhand -9.37031 30.3298
lfingers 7.12502
lthumb 16.5899 59.6407
rfemur -12.217 3.05722 24.3062
rtibia 31.8343
rfoot -19.3732 -9.21682
rtoes 7.26209
lfemur -14.3943 -4.36717 -20.822
ltibia 33.9654
lfoot -18.9957 3.85102
ltoes 0.69677
36
root 0.608783 17.3823 -31.2913 3.61251 -0.363411 0.834927
lowerback 4.08863 -3.57419 -6.31501
upperback -3.04997 -4.95932 5.4931
thorax -4.47004 -2.17572 9.75846
lowerneck -4.3677 0.13227 -14.5863
upperneck 20.1224 0.913812 4.71947
head 6.799 -0.267319 4.02927
rclavicle 3.60546e-014 -3.02153e-014
rhumerus -36.4402 3.16102 -81.3811
rradius 27.6399
rwrist 9.0335
rhand -17.5641 10.1803
rfingers 7.12502
rthumb 8.69097 -19.6208
lclavicle 3.60546e-014 -3.02153e-014
lhumerus -37.7539 19.4392 85.1795
lradius 26.5261
lwrist -12.4048
lhand -12.4268 28.5701
lfingers 7.12502
lthumb 13.6457 58.1028
rfemur -12.319 2.86115 24.5198
rtibia 31.852
rfoot -19.3325 -9.23694
rtoes 6.589
lfemur -14.713 -4.60655 -20.5867
ltibia 34.3719
lfoot -19.1074 3.72358
ltoes 0.731813
37
root 0.608775 17.3786 -31.2565 3.39798 -0.762932 0.659528
lowerback 4.10164 -3.40031 -5.94962
upperback -2.82824 -4.70386 5.44809
thorax -4.32627 -2.07487 9.47187
lowerneck -4.85606 0.103739 -14.5832
upperneck 20.4603 0.94737 4.77343
head 6.99052 -0.256296 4.06109
rclavicle -1.43075e-013 7.4743e-014
rhumerus -36.2935 2.94454 -81.2895
rradius 27.4863
rwrist 9.2247
rhand -17.7568 10.3626
rfingers 7.12502
rthumb 8.50508 -19.4461
lclavicle -1.43075e-013 7.4743e-014
lhumerus -37.7652 20.5323 84.4204
lradius 26.4645
lwrist -13.5123
lhand -14.5051 25.9842
lfingers 7.12502
lthumb 11.6421 55.6408
rfemur -11.9632 3.02362 24.6873
rtibia 31.8245
rfoot -19.4352 -8.93446
rtoes 6.87282
lfemur -14.5632 -4.73125 -20.4967
ltibia 34.8503
lfoot -19.2842 4.38002
ltoes 0.345618
38
root 0.581323 17.3797 -31.2724 3.54278 -0.155905 0.714409
lowerback 4.49383 -3.41145 -5.94201
upperback -2.8835 -4.7394 5.28809
thorax -4.61413 -2.07755 9.33187
lowerneck -5.21727 -0.139183 -14.5194
upperneck 20.8662 0.634434 4.94306
head 7.21597 -0.400952 4.09842
rclavicle 1.4387e-014 -1.59028e-014
rhumerus -36.2401 2.37985 -81.3184
rradius 27.4644
rwrist 9.16728
rhand -17.874 10.4664
rfingers 7.12502
rthumb 8.39191 -19.3469
lclavicle 1.4387e-014 -1.59028e-014
lhumerus -37.5836 20.7525 83.9607
lradius 26.3899
lwrist -13.2175
lhand -12.1101 28.7405
lfingers 7.12502
lthumb 13.9509 58.2525
rfemur -12.1179 2.84295 24.7985
rtibia 31.7633
rfoot -19.3291 -9.27602
rtoes 7.22249
lfemur -15.1921 -4.81436 -20.3707
ltibia 35.4238
lfoot -19.1116 3.9183
ltoes -0.351011
39
root 0.565729 17.375 -31.2722 3.54189 -0.168372 0.460745
lowerback 4.65543 -3.39025 -5.71079
upperback -2.81808 -4.69884 5.3383
thorax -4.65776 -2.06386 9.26047
lowerneck -5.42517 -0.148146 -14.5513
upperneck 20.9241 0.641563 5.0407
head 7.26942 -0.392071 4.14011
rclavicle 3.38804e-014 -3.18055e-014
rhumerus -36.19 2.62433 -81.489
rradius 27.6122
rwrist 8.51353
rhand -16.6555 8.36663
rfingers 7.12502
rthumb 9.56772 -21.3961
lclavicle 3.38804e-014 -3.18055e-014
lhumerus -37.7144 22.0305 83.0003
lradius 26.0429
lwrist -13.959
lhand -8.23789 27.8559
lfingers 7.12502
lthumb 17.6799 57.0721
rfemur -12.0568 2.83924 25.1381
rtibia 31.6339
rfoot -19.3061 -9.16989
rtoes 7.22944
lfemur -15.5623 -4.81768 -20.0428
ltibia 36.1043
lfoot -19.0485 4.00705
ltoes -0.829914
40
root 0.555837 17.3711 -31.2654 3.5431 -0.347144 0.1007
lowerback 4.70344 -3.31289 -5.25845
upperback -2.70165 -4.5628 5.37761
thorax -4.61771 -2.0155 9.03005
lowerneck -5.55773 -0.160147 -14.4004
upperneck 20.714 0.64274 4.96325
head 7.2242 -0.376758 4.08543
rclavicle -8.49804e-015 -2.22639e-014
rhumerus -36.1071 2.76726 -81.6421
rradius 27.7564
rwrist 7.94612
rhand -14.9555 6.90813
rfingers 7.12502
rthumb 11.2077 -22.7725
lclavicle -8.49804e-015 -2.22639e-014
lhumerus -37.642 22.7392 82.5147
lradius 25.9638
lwrist -13.9397
lhand -8.10878 28.1677
lfingers 7.12502
lthumb 17.8042 57.3727
rfemur -11.9916 2.90345 25.5629
rtibia 31.5269
rfoot -19.2483 -9.01332
rtoes 6.84071
lfemur -15.9534 -4.66132 -19.6412
ltibia 36.8885
lfoot -19.0408 4.16309
ltoes -1.1164
